<svg width="45" height="46" viewBox="0 0 45 46" fill="none" xmlns="http://www.w3.org/2000/svg">
<rect width="45" height="46" rx="8" fill="#1494D1" fill-opacity="0.1"/>
<path fill-rule="evenodd" clip-rule="evenodd" d="M23 11C16.3726 11 11 16.3726 11 23C11 25.5382 11.7864 27.8883 13.1287 29.8255C13.573 30.4666 13.6801 31.3226 13.3282 32.0797L11.9709 35H23C29.6274 35 35 29.6274 35 23C35 16.3726 29.6274 11 23 11ZM8 23C8 14.7157 14.7157 8 23 8C31.2843 8 38 14.7157 38 23C38 31.2843 31.2843 38 23 38H10.7924C9.09105 38 8.01479 36.19 8.80108 34.7023L10.4326 31.1919C8.89432 28.8363 8 26.0205 8 23Z" fill="#1494D1"/>
<path fill-rule="evenodd" clip-rule="evenodd" d="M17 26C17 25.1715 17.6715 24.5 18.5 24.5H27.5C28.3284 24.5 29 25.1715 29 26C29 26.8284 28.3284 27.5 27.5 27.5H18.5C17.6715 27.5 17 26.8284 17 26Z" fill="#1494D1"/>
<path fill-rule="evenodd" clip-rule="evenodd" d="M17 20C17 19.1715 17.6715 18.5 18.5 18.5H21.5C22.3284 18.5 23 19.1715 23 20C23 20.8284 22.3284 21.5 21.5 21.5H18.5C17.6715 21.5 17 20.8284 17 20Z" fill="#1494D1"/>
</svg>
