<svg width="17" height="17" viewBox="0 0 17 17" fill="none" xmlns="http://www.w3.org/2000/svg">
<rect x="16.0517" y="16.5654" width="16.0517" height="16.1308" rx="8.02585" transform="rotate(-180 16.0517 16.5654)" fill="#2ED6A3" fill-opacity="0.15"/>
<g clip-path="url(#clip0_14_163)">
<path d="M6.0396 8.36102C6.12814 8.44996 6.2482 8.49993 6.37338 8.49993C6.49857 8.49993 6.61863 8.44996 6.70717 8.36102L7.55366 7.51036L7.55366 10.635C7.55366 10.7608 7.6034 10.8815 7.69193 10.9705C7.78047 11.0594 7.90055 11.1094 8.02577 11.1094C8.15098 11.1094 8.27106 11.0594 8.3596 10.9705C8.44813 10.8815 8.49787 10.7608 8.49787 10.635L8.49787 7.51036L9.34437 8.36102C9.43341 8.44744 9.55266 8.49526 9.67645 8.49418C9.80023 8.4931 9.91864 8.4432 10.0062 8.35524C10.0937 8.26728 10.1434 8.14828 10.1444 8.02389C10.1455 7.89949 10.0979 7.77965 10.0119 7.69017L8.35955 6.02964C8.27101 5.9407 8.15095 5.89074 8.02577 5.89074C7.90058 5.89074 7.78052 5.9407 7.69198 6.02964L6.0396 7.69017C5.9511 7.77914 5.90138 7.89979 5.90138 8.02559C5.90138 8.1514 5.9511 8.27205 6.0396 8.36102Z" fill="#00A389"/>
</g>
<defs>
<clipPath id="clip0_14_163">
<rect width="5.66531" height="5.69322" fill="white" transform="translate(10.8585 11.3466) rotate(-180)"/>
</clipPath>
</defs>
</svg>
