<svg width="45" height="46" viewBox="0 0 45 46" fill="none" xmlns="http://www.w3.org/2000/svg">
<rect width="45" height="46" rx="8" fill="#00A389" fill-opacity="0.1"/>
<path fill-rule="evenodd" clip-rule="evenodd" d="M23 11C16.3726 11 11 16.3726 11 23C11 25.5382 11.7864 27.8883 13.1287 29.8255C13.573 30.4666 13.6801 31.3226 13.3282 32.0797L11.9709 35H23C29.6274 35 35 29.6274 35 23C35 16.3726 29.6274 11 23 11ZM8 23C8 14.7157 14.7157 8 23 8C31.2843 8 38 14.7157 38 23C38 31.2843 31.2843 38 23 38H10.7924C9.09105 38 8.01479 36.19 8.80108 34.7023L10.4326 31.1919C8.89432 28.8363 8 26.0205 8 23Z" fill="#00A389"/>
<path fill-rule="evenodd" clip-rule="evenodd" d="M16.9999 24.95C18.0769 24.95 18.9499 24.077 18.9499 23C18.9499 21.9231 18.0769 21.05 16.9999 21.05C15.923 21.05 15.0499 21.9231 15.0499 23C15.0499 24.077 15.923 24.95 16.9999 24.95Z" fill="#00A389"/>
<path fill-rule="evenodd" clip-rule="evenodd" d="M28.9999 24.95C30.0769 24.95 30.9499 24.077 30.9499 23C30.9499 21.9231 30.0769 21.05 28.9999 21.05C27.923 21.05 27.0499 21.9231 27.0499 23C27.0499 24.077 27.923 24.95 28.9999 24.95Z" fill="#00A389"/>
<path fill-rule="evenodd" clip-rule="evenodd" d="M22.9999 24.95C24.0769 24.95 24.9499 24.077 24.9499 23C24.9499 21.9231 24.0769 21.05 22.9999 21.05C21.923 21.05 21.0499 21.9231 21.0499 23C21.0499 24.077 21.923 24.95 22.9999 24.95Z" fill="#00A389"/>
</svg>
