<svg width="104" height="33" viewBox="0 0 104 33" fill="none" xmlns="http://www.w3.org/2000/svg">
<path d="M24.6758 1.95512C21.3582 2.43768 18.7794 4.75584 18.4468 7.6352V13.9748C16.6174 14.5592 15.1145 15.7102 14.2366 17.1758V7.8032C14.2366 4.55208 17.3522 1.90512 21.1834 1.90512H23.6211C23.9769 1.90504 24.3305 1.92112 24.6758 1.95512Z" fill="#1494D1"/>
<path d="M33.0056 22.2378C33.0056 26.2595 29.4783 29.5942 24.9118 30.1301C24.8918 30.1332 24.873 30.1353 24.8531 30.1374H24.851C21.5835 29.7277 18.9981 27.5459 18.5015 24.7751C18.6377 25.3349 19.0106 25.8228 19.5282 26.1563V26.1574C19.9881 26.4545 20.5622 26.6306 21.1834 26.6306H23.6211C26.4738 26.6306 28.7953 24.6594 28.7953 22.2378C28.7953 20.5324 27.6461 19.0522 25.973 18.3246C27.5434 18.0108 28.9745 17.3885 30.1739 16.5378C31.9192 17.9858 33.0056 20.007 33.0056 22.2378Z" fill="#017DC0"/>
<path d="M24.8505 30.1374C24.7515 30.1481 24.6505 30.1588 24.5495 30.1659C24.4505 30.1749 24.3515 30.182 24.2505 30.1874C24.1347 30.1946 24.019 30.1981 23.9011 30.2017C23.8084 30.2034 23.7137 30.2053 23.6211 30.2053H21.1834C17.3521 30.2053 14.2366 27.5583 14.2366 24.3072V20.166C14.2366 16.9131 17.3521 14.2679 21.1834 14.2679H23.4906C20.5729 15.0204 18.451 17.3224 18.451 20.0445C18.4489 20.0856 18.4467 20.1249 18.4467 20.166V24.3072C18.4467 24.3822 18.451 24.4574 18.4594 24.5306C18.4636 24.5574 18.4678 24.5861 18.472 24.6129C18.4763 24.6379 18.4804 24.6647 18.4847 24.6915C18.4889 24.7202 18.4952 24.7487 18.5015 24.7755C18.9983 27.5458 21.5834 29.7281 24.8505 30.1374Z" fill="#1494D1"/>
<path d="M32.993 9.87456C33.0003 11.1026 32.6839 12.3294 32.0271 13.4157C32.0061 13.4532 31.982 13.4907 31.959 13.5282C31.6143 14.0942 31.1931 14.6197 30.7029 15.0971C30.6579 15.1419 30.6118 15.1868 30.5657 15.2295C30.5154 15.2754 30.4631 15.3244 30.4117 15.3692C28.7491 16.839 26.4539 17.7418 24.0527 17.8335C23.9092 17.8387 23.7667 17.8429 23.6211 17.8429H21.1834C21.131 17.8429 21.0765 17.8439 21.0231 17.8481C20.9832 17.8481 20.9435 17.8512 20.9036 17.8554C20.2677 17.9075 19.657 18.1618 19.2159 18.5527C19.2128 18.5558 19.2096 18.5579 19.2065 18.561C19.1311 18.6288 19.0578 18.7007 18.9918 18.7768C18.9708 18.7987 18.9499 18.8216 18.9331 18.8466C18.7624 19.0541 18.6346 19.2845 18.5518 19.5315C18.5203 19.6222 18.4952 19.717 18.4784 19.8119C18.4659 19.889 18.4554 19.9651 18.4512 20.0444C18.4512 17.3226 20.5727 15.0199 23.4903 14.2673H23.6212C23.7071 14.2673 23.7941 14.2662 23.8799 14.2621C23.8863 14.2621 23.8946 14.2621 23.903 14.261C23.9858 14.2569 24.0675 14.2517 24.1491 14.2444C24.2151 14.2392 24.2801 14.2319 24.343 14.2246C26.3659 14.0015 28.0987 12.6672 28.6203 11.0024C28.9933 9.81296 28.7419 8.49328 27.9467 7.4644C27.1128 6.38344 25.6619 5.61304 24.1366 5.50256C24.0549 5.49424 23.9731 5.48904 23.8904 5.4848H23.8779C23.794 5.48168 23.7071 5.4796 23.6212 5.4796H21.1835C20.5413 5.4796 19.9525 5.66824 19.4853 5.98416C18.8526 6.40944 18.4471 7.06728 18.4471 7.8032V7.63536C18.7792 4.75616 21.3584 2.43784 24.6783 1.9552C24.6993 1.95728 24.7192 1.95936 24.7402 1.96248C27.6965 2.26896 30.4203 3.82736 31.8514 6.0488C32.597 7.20496 32.9857 8.54032 32.993 9.87456Z" fill="#017DC0"/>
<path d="M69.2791 16.1741C68.1558 14.8219 66.7791 14.0486 65.0962 13.8314C64.5168 13.7566 64.0101 13.5474 63.6601 13.057C63.2114 12.4285 63.1646 11.7506 63.5357 11.0858C63.9254 10.3875 64.5609 10.0673 65.3596 10.1529C67.6315 10.3965 69.61 11.2942 71.2528 12.8886C73.2546 14.8314 74.3002 17.2086 74.3326 19.9978C74.3623 22.5534 73.5272 24.8142 71.8353 26.7395C68.13 30.9558 62.0158 30.962 58.2302 28.047C55.3437 25.8243 54.0888 22.8279 54.3416 19.2016C54.3987 18.3826 54.9755 17.7336 55.7371 17.559C56.5451 17.3738 57.3223 17.695 57.7587 18.4114C57.9291 18.6912 58.0158 19.0041 58.0061 19.3363C57.9881 19.955 57.9618 20.5722 58.0714 21.1878C58.282 22.3714 58.7781 23.4138 59.578 24.3109C60.8258 25.7102 62.3979 26.4122 64.2626 26.4472C65.4538 26.4696 66.5663 26.1633 67.5856 25.5367C69.1439 24.5788 70.1286 23.2063 70.5084 21.4193C70.8521 19.8022 70.5838 18.2749 69.7452 16.8491C69.6906 16.7562 69.635 16.6633 69.573 16.5753C69.4651 16.4222 69.3519 16.273 69.2791 16.1741Z" fill="#10994D" stroke="#10994D" stroke-width="0.136" stroke-miterlimit="10"/>
<path d="M64.514 24.8127C67.0107 24.8127 69.0346 22.7888 69.0346 20.2921C69.0346 17.7954 67.0107 15.7715 64.514 15.7715C62.0173 15.7715 59.9933 17.7954 59.9933 20.2921C59.9933 22.7888 62.0173 24.8127 64.514 24.8127Z" fill="#10994D"/>
<path d="M64.3217 24.8089C64.3217 24.8089 61.2869 18.4207 64.5141 15.7716C64.5141 15.7716 59.2751 15.953 60.1132 21.3277C60.1132 21.3276 60.5461 24.4258 64.3217 24.8089Z" fill="#065B28"/>
<path d="M65.8657 30.2229C65.8657 30.2229 66.0857 27.9282 64.1368 26.1993C64.1368 26.1993 61.0876 26.2621 59.2015 23.433C59.2015 23.433 58.0384 21.7984 58.1956 19.0636C58.1956 19.0636 57.8499 17.2404 55.9952 17.2404C55.9952 17.2404 54.0148 17.3598 54.1091 19.6105C54.1091 19.6105 53.5433 23.3701 56.6239 26.9222C56.6239 26.9222 59.5787 31.0088 65.8657 30.2229Z" fill="#065B28"/>
<path d="M48.0305 26.6661C46.454 28.4916 44.5456 29.8745 41.8074 29.8745C37.9077 29.8745 34.6717 26.9704 34.2568 23.0983C33.7866 18.756 37.2992 14.6626 41.8351 14.6626C46.5646 14.6626 49.4687 19.3092 48.722 23.7621H38.129C38.7098 25.2556 40.148 26.2513 41.8074 26.2513C42.9691 26.2513 44.0478 25.7257 44.9328 24.7577L48.0305 26.6661ZM38.129 21.0239H45.1818C45.1818 19.5304 43.467 18.2857 41.8351 18.2857C39.8161 18.2857 38.129 19.6134 38.129 21.0239Z" fill="#017DC0"/>
<path d="M91.1414 22.94C91.1414 24.3774 91.1414 30.2706 91.1414 30.2706H86.6856C86.6856 27.0796 86.6856 24.4061 86.6856 22.94C86.6856 20.5827 85.8807 19.3466 83.2359 19.3466C81.3387 19.3466 79.9013 20.899 79.8725 22.8538C79.8725 24.6936 79.8725 30.2706 79.8725 30.2706H75.3591V15.4658H79.815V16.6444C79.8437 16.6157 81.3673 14.9771 83.7821 14.9771C89.8479 14.9771 91.1414 19.4615 91.1414 22.94Z" fill="#065B28"/>
</svg>
