<svg width="16" height="18" viewBox="0 0 16 18" fill="none" xmlns="http://www.w3.org/2000/svg">
<rect x="16" y="17.0654" width="16" height="16.1308" rx="8" transform="rotate(-180 16 17.0654)" fill="#FF5B5B" fill-opacity="0.15"/>
<g clip-path="url(#clip0_13_62)">
<path d="M6.02014 9.80985L7.6672 11.4704C7.75545 11.5593 7.87512 11.6093 7.99991 11.6093C8.12469 11.6093 8.24436 11.5593 8.33261 11.4704L9.97967 9.80985C10.0654 9.72037 10.1128 9.60053 10.1118 9.47613C10.1107 9.35174 10.0612 9.23275 9.97394 9.14478C9.88669 9.05682 9.76866 9.00692 9.64527 9.00584C9.52188 9.00476 9.40301 9.05258 9.31426 9.139L8.47049 9.98966L8.47049 6.86503C8.47049 6.73921 8.42091 6.61853 8.33266 6.52956C8.24441 6.44058 8.12471 6.3906 7.99991 6.3906C7.8751 6.3906 7.7554 6.44058 7.66715 6.52956C7.5789 6.61853 7.52932 6.73921 7.52932 6.86503L7.52932 9.98966L6.68555 9.139C6.5968 9.05258 6.47793 9.00476 6.35454 9.00584C6.23115 9.00692 6.11312 9.05682 6.02587 9.14478C5.93862 9.23274 5.88913 9.35174 5.88806 9.47613C5.88699 9.60053 5.93442 9.72037 6.02014 9.80985Z" fill="#FF5B5B"/>
</g>
<defs>
<clipPath id="clip0_13_62">
<rect width="5.64706" height="5.69322" fill="white" transform="translate(10.8235 11.8466) rotate(-180)"/>
</clipPath>
</defs>
</svg>
