<svg width="45" height="46" viewBox="0 0 45 46" fill="none" xmlns="http://www.w3.org/2000/svg">
<rect width="45" height="46" rx="8" fill="#FF5B5B" fill-opacity="0.1"/>
<path fill-rule="evenodd" clip-rule="evenodd" d="M22.5 10.6667C15.8726 10.6667 10.5 16.0393 10.5 22.6667C10.5 25.2049 11.2864 27.5549 12.6287 29.4922C13.073 30.1333 13.1801 30.9893 12.8282 31.7464L11.4709 34.6667H22.5C29.1274 34.6667 34.5 29.2941 34.5 22.6667C34.5 16.0393 29.1274 10.6667 22.5 10.6667ZM7.5 22.6667C7.5 14.3824 14.2157 7.66667 22.5 7.66667C30.7843 7.66667 37.5 14.3824 37.5 22.6667C37.5 30.9509 30.7843 37.6667 22.5 37.6667H10.2924C8.59105 37.6667 7.51479 35.8567 8.30108 34.369L9.93263 30.8586C8.39432 28.503 7.5 25.6872 7.5 22.6667Z" fill="#FF5B5B"/>
<path fill-rule="evenodd" clip-rule="evenodd" d="M21.4393 17.106C22.0251 16.5202 22.9748 16.5202 23.5606 17.106L28.0606 21.606C28.3419 21.8873 28.5 22.2689 28.5 22.6667C28.5 23.0645 28.3419 23.446 28.0606 23.7273L23.5606 28.2273C22.9748 28.8131 22.0251 28.8131 21.4393 28.2273C20.8535 27.6416 20.8535 26.6918 21.4393 26.106L23.3786 24.1667L18 24.1667C17.1715 24.1667 16.5 23.4951 16.5 22.6667C16.5 21.8383 17.1715 21.1667 18 21.1667L23.3786 21.1667L21.4393 19.2273C20.8535 18.6416 20.8535 17.6918 21.4393 17.106Z" fill="#FF5B5B"/>
</svg>
