<svg width="25" height="26" viewBox="0 0 25 26" fill="none" xmlns="http://www.w3.org/2000/svg">
<rect opacity="0.99" x="24.5" y="25.0591" width="24" height="24.1182" rx="12" transform="rotate(-180 24.5 25.0591)" fill="#E0F9F1"/>
<g clip-path="url(#clip0_14_176)">
<path d="M9.22808 12.9814C9.38719 13.1413 9.60297 13.2311 9.82795 13.2311C10.0529 13.2311 10.2687 13.1413 10.4278 12.9814L11.9492 11.4526L11.9492 17.0682C11.9492 17.2944 12.0386 17.5113 12.1977 17.6712C12.3568 17.8311 12.5726 17.9209 12.7977 17.9209C13.0227 17.9209 13.2385 17.8311 13.3976 17.6712C13.5567 17.5113 13.6461 17.2944 13.6461 17.0682L13.6461 11.4526L15.1675 12.9814C15.3275 13.1367 15.5418 13.2227 15.7643 13.2207C15.9868 13.2188 16.1996 13.1291 16.3569 12.971C16.5142 12.8129 16.6034 12.5991 16.6054 12.3755C16.6073 12.152 16.5218 11.9366 16.3672 11.7758L13.3975 8.79143C13.2384 8.63158 13.0226 8.54178 12.7977 8.54178C12.5727 8.54178 12.3569 8.63158 12.1978 8.79143L9.22808 11.7758C9.06901 11.9357 8.97965 12.1525 8.97965 12.3786C8.97965 12.6047 9.06901 12.8215 9.22808 12.9814Z" fill="#00A389"/>
</g>
<defs>
<clipPath id="clip0_14_176">
<rect width="10.1818" height="10.232" fill="white" transform="translate(17.8887 18.3472) rotate(-180)"/>
</clipPath>
</defs>
</svg>
