<svg width="41" height="40" viewBox="0 0 41 40" fill="none" xmlns="http://www.w3.org/2000/svg">
<g clip-path="url(#clip0_17_51)">
<path d="M0.500061 40L3.32718 29.7338C1.57933 26.7205 0.66243 23.308 0.671981 19.8194C0.671981 8.88783 9.6118 0 20.586 0C25.9155 0 30.9203 2.06274 34.6739 5.80799C38.437 9.55323 40.5096 14.5342 40.5 19.8289C40.5 30.7605 31.5602 39.6483 20.5765 39.6483H20.5669C17.2336 39.6483 13.9575 38.8118 11.0445 37.2338L0.500061 40ZM11.5507 33.6502L12.1524 34.0114C14.693 35.5133 17.6061 36.3023 20.5765 36.3118H20.586C29.7073 36.3118 37.138 28.9259 37.138 19.8384C37.138 15.4373 35.4188 11.3023 32.2956 8.18441C29.1724 5.06654 25.0082 3.35551 20.586 3.35551C11.4647 3.34601 4.03396 10.7319 4.03396 19.8194C4.03396 22.9278 4.90311 25.9601 6.565 28.5837L6.9566 29.211L5.28516 35.2852L11.5507 33.6502Z" fill="white"/>
<path d="M1.19724 39.3061L3.92885 29.3916C2.2383 26.4924 1.35005 23.1939 1.35005 19.8289C1.3596 9.27756 9.98424 0.693909 20.5859 0.693909C25.734 0.693909 30.5573 2.69011 34.1867 6.30228C37.8161 9.91444 39.8123 14.7243 39.8123 19.8384C39.8123 30.3897 31.1781 38.9734 20.5859 38.9734H20.5764C17.3577 38.9734 14.1963 38.1654 11.3882 36.6445L1.19724 39.3061Z" fill="url(#paint0_linear_17_51)"/>
<path d="M0.500061 40L3.32718 29.7338C1.57933 26.7205 0.66243 23.308 0.671981 19.8194C0.671981 8.88783 9.6118 0 20.586 0C25.9155 0 30.9203 2.06274 34.6739 5.80799C38.437 9.55323 40.5096 14.5342 40.5 19.8289C40.5 30.7605 31.5602 39.6483 20.5765 39.6483H20.5669C17.2336 39.6483 13.9575 38.8118 11.0445 37.2338L0.500061 40ZM11.5507 33.6502L12.1524 34.0114C14.693 35.5133 17.6061 36.3023 20.5765 36.3118H20.586C29.7073 36.3118 37.138 28.9259 37.138 19.8384C37.138 15.4373 35.4188 11.3023 32.2956 8.18441C29.1724 5.06654 25.0082 3.35551 20.586 3.35551C11.4647 3.34601 4.03396 10.7319 4.03396 19.8194C4.03396 22.9278 4.90311 25.9601 6.565 28.5837L6.9566 29.211L5.28516 35.2852L11.5507 33.6502Z" fill="url(#paint1_linear_17_51)"/>
<path fill-rule="evenodd" clip-rule="evenodd" d="M15.6098 11.5304C15.2373 10.7034 14.8457 10.6844 14.4923 10.6749C14.2058 10.6654 13.8715 10.6654 13.5372 10.6654C13.2029 10.6654 12.668 10.789 12.2096 11.2833C11.7511 11.7776 10.4713 12.9753 10.4713 15.4183C10.4713 17.8517 12.2573 20.2091 12.5057 20.5418C12.754 20.8745 15.9536 26.0361 21.0061 28.0228C25.2086 29.6768 26.0682 29.3441 26.9756 29.2586C27.8829 29.173 29.9173 28.0608 30.3376 26.9011C30.7482 25.7415 30.7482 24.7529 30.6241 24.5437C30.4999 24.3346 30.1656 24.211 29.669 23.9639C29.1723 23.7167 26.7272 22.519 26.2688 22.3479C25.8103 22.1863 25.476 22.1008 25.1513 22.5951C24.817 23.0894 23.8619 24.2015 23.5754 24.5342C23.2888 24.8669 22.9928 24.905 22.4961 24.6578C21.9994 24.4107 20.3949 23.8878 18.4942 22.1958C17.0138 20.884 16.0109 19.2586 15.7244 18.7643C15.4378 18.27 15.6957 18.0038 15.9441 17.7567C16.1637 17.538 16.4407 17.1768 16.689 16.8916C16.9374 16.6065 17.0233 16.3973 17.1857 16.0646C17.3481 15.7319 17.2717 15.4468 17.1475 15.1996C17.0233 14.962 16.0491 12.5095 15.6098 11.5304Z" fill="white"/>
</g>
<defs>
<linearGradient id="paint0_linear_17_51" x1="20.5038" y1="39.3042" x2="20.5038" y2="0.692558" gradientUnits="userSpaceOnUse">
<stop stop-color="#20B038"/>
<stop offset="1" stop-color="#60D66A"/>
</linearGradient>
<linearGradient id="paint1_linear_17_51" x1="20.504" y1="39.9962" x2="20.504" y2="0" gradientUnits="userSpaceOnUse">
<stop stop-color="#F9F9F9"/>
<stop offset="1" stop-color="white"/>
</linearGradient>
<clipPath id="clip0_17_51">
<rect width="40" height="40" fill="white" transform="translate(0.5)"/>
</clipPath>
</defs>
</svg>
