<svg width="210" height="65" viewBox="0 0 210 65" fill="none" xmlns="http://www.w3.org/2000/svg">
<g clip-path="url(#clip0_3_6155)">
<g clip-path="url(#clip1_3_6155)">
<path d="M49.8514 3.41024C43.2162 4.37536 38.0587 9.01168 37.3935 14.7704V27.4496C33.7347 28.6184 30.7288 30.9205 28.9731 33.8517V15.1064C28.9731 8.60416 35.2042 3.31024 42.8667 3.31024H47.7421C48.4536 3.31008 49.1608 3.34224 49.8514 3.41024Z" fill="#1494D1"/>
<path d="M66.5111 43.9757C66.5111 52.019 59.4565 58.6885 50.3234 59.7602C50.2836 59.7664 50.2458 59.7706 50.2061 59.7747H50.202C43.6669 58.9554 38.496 54.5918 37.5029 49.0502C37.7752 50.1698 38.5212 51.1456 39.5562 51.8126V51.8147C40.4761 52.409 41.6242 52.7613 42.8666 52.7613H47.7421C53.4474 52.7613 58.0904 48.8189 58.0904 43.9757C58.0904 40.5648 55.792 37.6043 52.446 36.1491C55.5868 35.5216 58.4488 34.277 60.8477 32.5757C64.3383 35.4715 66.5111 39.5141 66.5111 43.9757Z" fill="#017DC0"/>
<path d="M50.201 59.7747C50.0031 59.7962 49.801 59.8176 49.5989 59.8318C49.401 59.8498 49.2031 59.864 49.001 59.8747C48.7695 59.8891 48.5379 59.8962 48.3021 59.9034C48.1168 59.9069 47.9274 59.9106 47.7421 59.9106H42.8667C35.2042 59.9106 28.9731 54.6166 28.9731 48.1144V39.832C28.9731 33.3262 35.2042 28.0358 42.8667 28.0358H47.4811C41.6458 29.5408 37.4019 34.1448 37.4019 39.589C37.3978 39.6712 37.3935 39.7498 37.3935 39.832V48.1144C37.3935 48.2645 37.4019 48.4147 37.4187 48.5613C37.4272 48.6149 37.4355 48.6722 37.444 48.7258C37.4525 48.7758 37.4608 48.8294 37.4693 48.883C37.4778 48.9403 37.4904 48.9974 37.5031 49.051C38.4967 54.5915 43.6667 58.9562 50.201 59.7747Z" fill="#1494D1"/>
<path d="M66.486 19.2491C66.5007 21.7051 65.8679 24.1589 64.5541 26.3314C64.5122 26.4064 64.4641 26.4814 64.418 26.5565C63.7287 27.6885 62.8863 28.7394 61.9058 29.6942C61.8157 29.7838 61.7236 29.8736 61.6314 29.959C61.5308 30.0507 61.4261 30.1488 61.3234 30.2384C57.9983 33.1781 53.4077 34.9835 48.6055 35.167C48.3185 35.1774 48.0335 35.1858 47.7423 35.1858H42.8668C42.762 35.1858 42.653 35.1878 42.5461 35.1962C42.4664 35.1962 42.3869 35.2024 42.3072 35.2107C41.0354 35.315 39.814 35.8237 38.9319 36.6054C38.9256 36.6117 38.9192 36.6158 38.913 36.6221C38.7621 36.7576 38.6156 36.9014 38.4836 37.0536C38.4416 37.0974 38.3997 37.1432 38.3663 37.1933C38.0248 37.6082 37.7692 38.069 37.6036 38.563C37.5407 38.7445 37.4904 38.9341 37.4568 39.1238C37.4317 39.2781 37.4108 39.4302 37.4024 39.5888C37.4024 34.1453 41.6453 29.5398 47.4805 28.0346H47.7424C47.9143 28.0346 48.0882 28.0325 48.2599 28.0242C48.2725 28.0242 48.2892 28.0242 48.306 28.0221C48.4716 28.0138 48.6349 28.0034 48.7983 27.9888C48.9303 27.9784 49.0602 27.9638 49.186 27.9491C53.2319 27.503 56.6973 24.8344 57.7407 21.5048C58.4866 19.1259 57.9837 16.4866 56.3935 14.4288C54.7257 12.2669 51.8239 10.7261 48.7732 10.5051C48.6098 10.4885 48.4463 10.4781 48.2809 10.4696H48.2557C48.088 10.4634 47.9143 10.4592 47.7424 10.4592H42.8669C41.5826 10.4592 40.405 10.8365 39.4706 11.4683C38.2052 12.3189 37.3943 13.6346 37.3943 15.1064V14.7707C38.0584 9.01232 43.2168 4.37568 49.8567 3.4104C49.8986 3.41456 49.9384 3.41872 49.9804 3.42496C55.893 4.03792 61.3407 7.15472 64.2028 11.5976C65.694 13.9099 66.4714 16.5806 66.486 19.2491Z" fill="#017DC0"/>
<path d="M139.058 31.8482C136.812 29.1438 134.058 27.5971 130.693 27.1629C129.534 27.0133 128.52 26.5947 127.82 25.6139C126.923 24.357 126.829 23.0011 127.571 21.6717C128.351 20.275 129.622 19.6346 131.219 19.8058C135.763 20.293 139.72 22.0885 143.006 25.2773C147.009 29.1627 149.101 33.9171 149.165 39.4955C149.225 44.6067 147.555 49.1285 144.171 52.979C136.76 61.4115 124.532 61.424 116.961 55.5941C111.187 51.1486 108.678 45.1558 109.183 37.9032C109.298 36.2653 110.451 34.9672 111.974 34.6181C113.59 34.2475 115.145 34.8899 116.018 36.3229C116.358 36.8824 116.532 37.5082 116.512 38.1726C116.476 39.4099 116.424 40.6443 116.643 41.8757C117.064 44.2429 118.056 46.3277 119.656 48.1218C122.152 50.9203 125.296 52.3243 129.025 52.3944C131.408 52.4392 133.633 51.8266 135.671 50.5734C138.788 48.6576 140.757 45.9126 141.517 42.3386C142.204 39.1045 141.668 36.0498 139.991 33.1982C139.881 33.0123 139.77 32.8266 139.646 32.6506C139.43 32.3445 139.204 32.0461 139.058 31.8482Z" fill="#10994D" stroke="#10994D" stroke-width="0.272" stroke-miterlimit="10"/>
<path d="M129.528 49.1254C134.521 49.1254 138.569 45.0775 138.569 40.0842C138.569 35.0908 134.521 31.0429 129.528 31.0429C124.535 31.0429 120.487 35.0908 120.487 40.0842C120.487 45.0775 124.535 49.1254 129.528 49.1254Z" fill="#10994D"/>
<path d="M129.143 49.1178C129.143 49.1178 123.074 36.3414 129.528 31.0432C129.528 31.0432 119.05 31.4061 120.726 42.1554C120.726 42.1552 121.592 48.3515 129.143 49.1178Z" fill="#065B28"/>
<path d="M132.231 59.9459C132.231 59.9459 132.671 55.3565 128.774 51.8986C128.774 51.8986 122.675 52.0243 118.903 46.3661C118.903 46.3661 116.577 43.0968 116.891 37.6272C116.891 37.6272 116.2 33.9808 112.49 33.9808C112.49 33.9808 108.53 34.2197 108.718 38.7211C108.718 38.7211 107.586 46.2403 113.748 53.3445C113.748 53.3445 119.657 61.5176 132.231 59.9459Z" fill="#065B28"/>
<path d="M96.5611 52.8323C93.4081 56.4832 89.5913 59.249 84.115 59.249C76.3155 59.249 69.8435 53.4408 69.0137 45.6966C68.0734 37.012 75.0985 28.8253 84.1704 28.8253C93.6294 28.8253 99.4375 38.1184 97.9441 47.0242H76.758C77.9196 50.0112 80.7961 52.0026 84.115 52.0026C86.4384 52.0026 88.5956 50.9515 90.3657 49.0155L96.5611 52.8323ZM76.758 41.5478H90.8636C90.8636 38.5608 87.434 36.0715 84.1704 36.0715C80.1323 36.0715 76.758 38.7269 76.758 41.5478Z" fill="#017DC0"/>
<path d="M182.783 45.38C182.783 48.2547 182.783 60.0411 182.783 60.0411H173.871C173.871 53.6592 173.871 48.3122 173.871 45.38C173.871 40.6654 172.261 38.1931 166.972 38.1931C163.177 38.1931 160.303 41.2979 160.245 45.2075C160.245 48.8872 160.245 60.0411 160.245 60.0411H151.218V30.4315H160.13V32.7888C160.187 32.7314 163.235 29.4541 168.064 29.4541C180.196 29.4541 182.783 38.423 182.783 45.38Z" fill="#065B28"/>
</g>
</g>
<defs>
<clipPath id="clip0_3_6155">
<rect width="209" height="64" fill="white" transform="translate(0.5 0.5)"/>
</clipPath>
<clipPath id="clip1_3_6155">
<rect width="208" height="64" fill="white" transform="translate(0.5 0.5)"/>
</clipPath>
</defs>
</svg>
